<svg xmlns="http://www.w3.org/2000/svg" xmlns:xlink="http://www.w3.org/1999/xlink" viewBox="0 0 256 256"><defs><style>.a{fill:none;}.b{clip-path:url(#a);}.c{fill:#5c913b;}.d{fill:#77b255;}.e{fill:#5fa249;}.f,.h{fill:#f9f9f9;}.f,.g,.h{stroke:#422c01;}.f{stroke-width:3.02px;}.g,.i,.j{fill:#422c01;}.g,.h,.i{stroke-miterlimit:10;}.i,.j{stroke:#423730;}.k{fill:#fff;}</style><clipPath id="a"><rect class="a" x="-0.45" y="0.03" width="257.11" height="257.11"/></clipPath></defs><rect class="a" x="-0.45" y="32.17" width="257.11" height="257.11"/><g class="b"><path class="c" d="M55.12,61.63C12.28,142.68-51.09,207.15-81.31,234.86c-73.52,67.46-198.38,150-181.91,236.59C-251.15,534.9-207,567-112.14,552.07-21.57,537.81,75,450.48,149.18,344.16c82-117.43,128.18-197.92,142.57-269.84,12.08-60.43,14.51-134.3-35-156.84C213.79-102.07,129.37-78.88,55.12,61.63Z"/><path class="d" d="M-153,533.59c92.8-14.61,191.73-104.09,267.77-213C198.76,200.22,246.1,117.75,260.83,44c8.52-42.6,12.36-91.71-2.61-125.73-.51-.26-1-.6-1.48-.83-43-19.56-127.37,3.63-201.62,144.14C12.28,142.68-51.09,207.13-81.32,234.85c-73.51,67.47-198.37,150-181.9,236.6,5.18,27.19,16.3,48.57,34.71,63C-207.88,538.42-182.92,538.31-153,533.59Z"/><path class="e" d="M2.57,370.84c-7.6,2.37-15.19.79-22.68-4.75s-11.24-12.35-11.21-20.29A2.61,2.61,0,0,0-32.85,343a2.28,2.28,0,0,0-2.53.82c-7.45,10.07-4.29,25.06,7,33.43A27.17,27.17,0,0,0-10,382.6a21.57,21.57,0,0,0,15.7-8.46,2.32,2.32,0,0,0,0-2.65A2.68,2.68,0,0,0,2.57,370.84Zm144.28-156.5c-7.92.34-14.9-3.17-20.71-10.44s-7.66-14.88-5.55-22.51a2.57,2.57,0,0,0-.77-3.14,2.34,2.34,0,0,0-2.64.15,21.34,21.34,0,0,0-7.91,16,27.2,27.2,0,0,0,6.06,18.12c5.83,7.31,14.47,10.93,22.46,10.25a20.72,20.72,0,0,0,11.26-4.42,2.36,2.36,0,0,0,.72-2.56A2.67,2.67,0,0,0,146.85,214.34ZM50.73,239.91h0a13.48,13.48,0,0,0,9.84-5.32,2.29,2.29,0,0,0,.07-2.64,2.84,2.84,0,0,0-2.88-.75c-4.08,1.31-8.36.41-12.5-2.65S39,221.7,39.08,217.36a2.77,2.77,0,0,0-1.53-2.52,2.24,2.24,0,0,0-2.51.81c-4.67,6.32-2.73,15.71,4.32,20.92A16.86,16.86,0,0,0,50.73,239.91ZM196.85,98.84c-4.17-3.06-6.25-6.85-6.21-11.19a2.8,2.8,0,0,0-1.53-2.53,2.26,2.26,0,0,0-2.52.82c-4.66,6.31-2.72,15.71,4.32,20.91a16.92,16.92,0,0,0,11.39,3.36h0a13.48,13.48,0,0,0,9.83-5.32,2.3,2.3,0,0,0,.08-2.64,2.87,2.87,0,0,0-2.88-.75C205.26,102.79,201,101.91,196.85,98.84Zm-75.27,10.49h0a13.43,13.43,0,0,0,9.85-5.34,2.25,2.25,0,0,0,0-2.62,2.82,2.82,0,0,0-2.86-.73c-4.22,1.32-8.38.4-12.5-2.65s-6.25-6.85-6.21-11.19a2.78,2.78,0,0,0-1.53-2.52,2.23,2.23,0,0,0-2.51.8c-4.67,6.31-2.73,15.7,4.32,20.91A16.78,16.78,0,0,0,121.58,109.33ZM220.37-17.33c-4.25,1.34-8.38.4-12.5-2.65s-6.25-6.85-6.22-11.19a2.77,2.77,0,0,0-1.52-2.52,2.25,2.25,0,0,0-2.52.8c-4.67,6.31-2.73,15.71,4.32,20.91a16.84,16.84,0,0,0,11.39,3.35h0A13.41,13.41,0,0,0,223.2-14a2.25,2.25,0,0,0,0-2.62A2.83,2.83,0,0,0,220.37-17.33ZM-181.41,430.06a22.84,22.84,0,0,1-3.86-25.85,2.24,2.24,0,0,0-.55-2.65,2.2,2.2,0,0,0-2.7-.14,26.46,26.46,0,0,0-3.13,2.46,25.85,25.85,0,0,0-8.08,18.22,25.86,25.86,0,0,0,7.17,18.59,26,26,0,0,0,21.08,8,26,26,0,0,0,15.72-7.07,28.52,28.52,0,0,0,2.61-3,2.19,2.19,0,0,0,0-2.69,2.27,2.27,0,0,0-2.63-.68A22.92,22.92,0,0,1-181.41,430.06ZM-21.6,285.87A26,26,0,0,0-5.88,278.8a29.39,29.39,0,0,0,2.61-3,2.21,2.21,0,0,0,0-2.7,2.25,2.25,0,0,0-2.63-.67,22.9,22.9,0,0,1-25.65-5.09,22.89,22.89,0,0,1-3.86-25.86,2.22,2.22,0,0,0-.54-2.64,2.21,2.21,0,0,0-2.7-.14,25.56,25.56,0,0,0-3.14,2.46,25.84,25.84,0,0,0-8.07,18.22,25.86,25.86,0,0,0,7.16,18.58A26.12,26.12,0,0,0-21.6,285.87ZM126.25,22.52a22.86,22.86,0,0,1-3.86-25.86A2.24,2.24,0,0,0,121.84-6a2.2,2.2,0,0,0-2.7-.14A26.34,26.34,0,0,0,116-3.66a26,26,0,0,0,20.18,44.77,25.89,25.89,0,0,0,15.72-7.06,28.52,28.52,0,0,0,2.61-3,2.19,2.19,0,0,0,0-2.69,2.27,2.27,0,0,0-2.63-.68A22.92,22.92,0,0,1,126.25,22.52ZM-61.68,434.84a16.48,16.48,0,0,1-18.56,3.32,16.46,16.46,0,0,1-9.38-16.37A1.75,1.75,0,0,0-90.8,420a1.74,1.74,0,0,0-2,.69,20.42,20.42,0,0,0-1.5,2.52A18.84,18.84,0,0,0-95,437.81a18.93,18.93,0,0,0,9.9,10.79,19,19,0,0,0,9.68,1.74,19.28,19.28,0,0,0,4.93-1.09,19,19,0,0,0,10.79-9.9,17.27,17.27,0,0,0,1-2.78,1.74,1.74,0,0,0-.8-2A1.7,1.7,0,0,0-61.68,434.84Zm-58.6-98a16.48,16.48,0,0,1,5.41-18.08,1.77,1.77,0,0,0,.52-2.1,1.8,1.8,0,0,0-1.93-1,20,20,0,0,0-2.87.66,19,19,0,0,0-11,9.6,19.07,19.07,0,0,0-1,14.59,19,19,0,0,0,9.59,11,19,19,0,0,0,10.13,1.95,19.36,19.36,0,0,0,4.44-.91,17,17,0,0,0,2.71-1.21,1.77,1.77,0,0,0,.92-1.95A1.77,1.77,0,0,0-105.1,348,16.49,16.49,0,0,1-120.28,336.84Zm200-187.46a16.39,16.39,0,0,1-29.6-8.73A1.73,1.73,0,0,0,48.72,139a1.67,1.67,0,0,0-1.91,1,16.94,16.94,0,0,0-1.1,2.73A19.12,19.12,0,1,0,82.4,153.51a20.52,20.52,0,0,0,.53-2.88,1.77,1.77,0,0,0-1.1-1.87A1.85,1.85,0,0,0,79.74,149.38ZM73.06,309.29a16.39,16.39,0,0,1-29.33-9.57,1.75,1.75,0,0,0-3.33-.7,16.67,16.67,0,0,0-1.18,2.65,19.11,19.11,0,0,0,12.23,24.09,18.87,18.87,0,0,0,7.54.88,19.14,19.14,0,0,0,16.57-13.1,18.39,18.39,0,0,0,.64-2.87,1.74,1.74,0,0,0-1-1.91A1.8,1.8,0,0,0,73.06,309.29Z"/><circle class="c" cx="228.54" cy="213.11" r="11.27"/><circle class="d" cx="234.96" cy="111.35" r="8.82"/><circle class="d" cx="258.75" cy="20.79" r="8.82"/><circle class="d" cx="191.24" cy="195.32" r="8.82"/><circle class="d" cx="157.07" cy="255.24" r="8.82"/><circle class="d" cx="-10.73" cy="167.46" r="11.27"/><circle class="d" cx="27.49" cy="118.03" r="11.27"/><circle class="d" cx="87.34" cy="50.66" r="11.27"/><circle class="d" cx="227.89" cy="137.38" r="11.27"/></g><rect class="a" x="-28" y="-56.86" width="355.41" height="355.41" transform="translate(-22.38 34.8) rotate(-12.35)"/><ellipse class="f" cx="199.99" cy="127.85" rx="56.01" ry="50.22" transform="translate(53.71 314.79) rotate(-84.55)"/><ellipse class="g" cx="199.99" cy="127.85" rx="46.09" ry="41.33" transform="translate(53.71 314.79) rotate(-84.55)"/><ellipse class="h" cx="220.02" cy="136.27" rx="18.95" ry="14.91" transform="translate(-19.35 234.64) rotate(-54.11)"/><ellipse class="h" cx="172.51" cy="131.83" rx="10.05" ry="7.96" transform="translate(-25.54 220.78) rotate(-61.57)"/><ellipse class="f" cx="105.53" cy="63.53" rx="56.01" ry="50.22" transform="translate(32.26 162.54) rotate(-84.55)"/><ellipse class="i" cx="105.53" cy="63.53" rx="46.09" ry="41.33" transform="translate(32.26 162.54) rotate(-84.55)"/><ellipse class="h" cx="125.55" cy="71.94" rx="18.95" ry="14.91" transform="translate(-6.33 131.49) rotate(-54.11)"/><ellipse class="h" cx="78.05" cy="67.5" rx="10.05" ry="7.96" transform="translate(-18.47 104.01) rotate(-61.57)"/><path class="j" d="M109.86,162.55c-19.23-13.83-30.38-25.24-43.95-39.65-3.11-3.29-10.62-7.64-18.25,3-15.26,21.23-13.85,72,20.14,96.47s81.36,8.72,96.62-12.51c7.63-10.61,1.13-16.36-3-18.25C143.46,183.31,129.09,176.38,109.86,162.55Z"/><path class="k" d="M60.08,131s12.11,16.76,44,39.66,51.58,29,51.58,29-26,13.89-63.19-12.83S60.08,131,60.08,131Z"/></svg>