<?xml version="1.0" encoding="UTF-8" standalone="no"?>
<svg
   xmlns:dc="http://purl.org/dc/elements/1.1/"
   xmlns:cc="http://creativecommons.org/ns#"
   xmlns:rdf="http://www.w3.org/1999/02/22-rdf-syntax-ns#"
   xmlns:svg="http://www.w3.org/2000/svg"
   xmlns="http://www.w3.org/2000/svg"
   xmlns:sodipodi="http://sodipodi.sourceforge.net/DTD/sodipodi-0.dtd"
   xmlns:inkscape="http://www.inkscape.org/namespaces/inkscape"
   width="100%"
   height="100%"
   viewBox="0 0 36 36"
   version="1.1"
   xml:space="preserve"
   style="fill-rule:evenodd;clip-rule:evenodd;stroke-linejoin:round;stroke-miterlimit:2;"
   id="svg126"
   sodipodi:docname="gurkan_swag.svg"
   inkscape:export-filename="/home/vinam/Downloads/gurkan_swag.png"
   inkscape:export-xdpi="2730.6667"
   inkscape:export-ydpi="2730.6667"
   inkscape:version="1.0.2 (e86c870879, 2021-01-15)"><metadata
   id="metadata132"><rdf:RDF><cc:Work
       rdf:about=""><dc:format>image/svg+xml</dc:format><dc:type
         rdf:resource="http://purl.org/dc/dcmitype/StillImage" /><dc:title /></cc:Work></rdf:RDF></metadata><defs
   id="defs130" /><sodipodi:namedview
   pagecolor="#ffffff"
   bordercolor="#666666"
   borderopacity="1"
   objecttolerance="10"
   gridtolerance="10"
   guidetolerance="10"
   inkscape:pageopacity="0"
   inkscape:pageshadow="2"
   inkscape:window-width="1366"
   inkscape:window-height="743"
   id="namedview128"
   showgrid="false"
   inkscape:zoom="10.547676"
   inkscape:cx="-6.8012336"
   inkscape:cy="15.731022"
   inkscape:window-x="0"
   inkscape:window-y="25"
   inkscape:window-maximized="0"
   inkscape:current-layer="svg126"
   inkscape:document-rotation="0" />
    <rect
   x="0"
   y="0"
   width="36"
   height="36"
   style="fill:none;"
   id="rect98" />
    <clipPath
   id="_clip1">
        <rect
   x="0"
   y="0"
   width="36"
   height="36"
   id="rect100" />
    </clipPath>
    <g
   clip-path="url(#_clip1)"
   id="g124">
        <g
   transform="matrix(2.46119,-0.210466,0.210466,2.46119,-45.5995,-7.98774)"
   id="g122">
            <g
   id="g120">
                <path
   id="path10"
   d="M20.958,8.542C18.147,12.913 14.257,16.248 12.416,17.667C7.938,21.122 0.488,25.179 1,30.15C1.375,33.792 3.714,35.819 9.143,35.433C14.327,35.065 20.201,30.599 24.906,24.953C30.103,18.717 33.101,14.394 34.261,10.402C35.235,7.047 35.729,2.887 33.042,1.375C30.71,0.063 25.83,0.965 20.958,8.542Z"
   style="fill:rgb(92,145,59);fill-rule:nonzero;" />
                <path
   id="path26"
   d="M6.924,34.192C12.236,33.815 18.255,29.239 23.076,23.453C28.401,17.063 31.473,12.634 32.661,8.542C33.348,6.177 33.802,3.422 33.121,1.428C33.093,1.411 33.07,1.39 33.041,1.374C30.709,0.062 25.83,0.964 20.958,8.541C18.147,12.913 14.257,16.247 12.416,17.666C7.938,21.122 0.488,25.179 1,30.15C1.161,31.711 1.686,32.972 2.656,33.877C3.802,34.2 5.212,34.314 6.924,34.192Z"
   style="fill:rgb(119,178,85);fill-rule:nonzero;" />
                <path
   id="path28"
   d="M16.497,25.752C16.056,25.849 15.635,25.723 15.239,25.374C14.843,25.026 14.664,24.622 14.704,24.174C14.708,24.132 14.716,24.044 14.631,24.006C14.581,23.985 14.519,23.999 14.484,24.04C14.015,24.573 14.121,25.435 14.719,25.962C15.017,26.225 15.382,26.355 15.731,26.355C16.085,26.355 16.421,26.221 16.658,25.953C16.694,25.912 16.701,25.849 16.674,25.804C16.625,25.725 16.539,25.743 16.497,25.752ZM25.401,17.61C24.952,17.591 24.575,17.359 24.282,16.92C23.989,16.48 23.921,16.043 24.077,15.622C24.092,15.582 24.123,15.5 24.049,15.441C24.006,15.409 23.945,15.407 23.899,15.437C23.61,15.629 23.424,15.936 23.375,16.302C23.327,16.661 23.418,17.035 23.63,17.355C23.924,17.796 24.394,18.042 24.849,18.042C25.079,18.042 25.307,17.98 25.506,17.847C25.55,17.817 25.573,17.758 25.559,17.706C25.531,17.616 25.443,17.612 25.401,17.61ZM19.849,18.59L19.851,18.59C20.081,18.59 20.289,18.499 20.432,18.337C20.468,18.296 20.476,18.235 20.449,18.188C20.422,18.141 20.345,18.122 20.29,18.132C20.053,18.186 19.816,18.115 19.597,17.922C19.376,17.729 19.277,17.505 19.3,17.26C19.305,17.206 19.276,17.131 19.226,17.11C19.175,17.089 19.117,17.102 19.08,17.144C18.786,17.478 18.85,18.018 19.223,18.346C19.4,18.502 19.623,18.589 19.849,18.59ZM28.783,11.328C28.562,11.135 28.463,10.911 28.486,10.666C28.491,10.612 28.462,10.537 28.412,10.516C28.361,10.494 28.302,10.509 28.266,10.55C27.972,10.884 28.036,11.424 28.409,11.752C28.588,11.909 28.81,11.996 29.036,11.997L29.038,11.997C29.268,11.997 29.476,11.906 29.619,11.744C29.655,11.703 29.663,11.642 29.636,11.595C29.609,11.549 29.532,11.528 29.477,11.539C29.239,11.592 29.003,11.522 28.783,11.328ZM24.481,11.557L24.483,11.557C24.713,11.557 24.921,11.467 25.065,11.303C25.101,11.262 25.107,11.201 25.08,11.155C25.052,11.107 24.972,11.089 24.922,11.1C24.677,11.154 24.447,11.082 24.229,10.89C24.008,10.696 23.909,10.473 23.932,10.228C23.937,10.174 23.908,10.099 23.858,10.078C23.808,10.056 23.748,10.07 23.712,10.111C23.418,10.445 23.482,10.985 23.855,11.313C24.033,11.47 24.256,11.557 24.481,11.557ZM30.672,4.881C30.426,4.936 30.197,4.863 29.979,4.671C29.758,4.477 29.659,4.254 29.682,4.009C29.687,3.955 29.658,3.88 29.608,3.859C29.557,3.837 29.498,3.851 29.462,3.892C29.168,4.226 29.232,4.766 29.605,5.094C29.784,5.251 30.006,5.338 30.232,5.338L30.234,5.338C30.464,5.338 30.672,5.248 30.816,5.084C30.852,5.043 30.858,4.982 30.831,4.936C30.803,4.888 30.723,4.87 30.672,4.881ZM5.82,28.208C5.483,27.788 5.445,27.193 5.727,26.729C5.756,26.68 5.748,26.618 5.709,26.577C5.669,26.536 5.606,26.527 5.557,26.556C5.492,26.594 5.427,26.632 5.368,26.68C5.06,26.927 4.867,27.278 4.824,27.67C4.781,28.062 4.893,28.447 5.139,28.754C5.43,29.117 5.859,29.306 6.291,29.306C6.615,29.306 6.941,29.201 7.213,28.983C7.271,28.936 7.319,28.884 7.375,28.824C7.414,28.782 7.419,28.72 7.388,28.672C7.357,28.623 7.294,28.604 7.243,28.621C6.729,28.793 6.158,28.628 5.82,28.208ZM15.542,20.836C15.866,20.836 16.192,20.731 16.464,20.513C16.522,20.466 16.57,20.414 16.626,20.354C16.665,20.312 16.67,20.25 16.639,20.202C16.608,20.153 16.545,20.134 16.494,20.151C15.98,20.325 15.408,20.16 15.07,19.74C14.733,19.32 14.695,18.725 14.977,18.261C15.006,18.212 14.998,18.15 14.959,18.109C14.919,18.068 14.855,18.06 14.807,18.088C14.742,18.126 14.677,18.164 14.618,18.212C14.31,18.459 14.117,18.81 14.074,19.202C14.031,19.594 14.143,19.979 14.389,20.286C14.681,20.647 15.109,20.836 15.542,20.836ZM25.164,6.677C24.827,6.257 24.789,5.662 25.071,5.198C25.1,5.149 25.092,5.087 25.053,5.046C25.013,5.005 24.949,4.996 24.901,5.025C24.836,5.063 24.771,5.101 24.712,5.149C24.404,5.396 24.211,5.747 24.168,6.139C24.125,6.531 24.237,6.916 24.483,7.223C24.774,7.586 25.203,7.775 25.635,7.775C25.959,7.775 26.285,7.67 26.557,7.452C26.615,7.405 26.663,7.353 26.719,7.293C26.758,7.251 26.763,7.189 26.732,7.141C26.701,7.092 26.638,7.073 26.587,7.09C26.073,7.262 25.502,7.097 25.164,6.677ZM12.559,29.056C12.259,29.308 11.832,29.348 11.495,29.154C11.158,28.961 10.976,28.571 11.044,28.184C11.052,28.139 11.028,28.094 10.986,28.076C10.946,28.057 10.895,28.069 10.867,28.105C10.833,28.148 10.799,28.192 10.77,28.24C10.625,28.491 10.587,28.783 10.663,29.063C10.738,29.343 10.919,29.576 11.17,29.72C11.336,29.816 11.522,29.865 11.708,29.865C11.803,29.865 11.898,29.852 11.992,29.827C12.271,29.752 12.505,29.572 12.649,29.32C12.677,29.271 12.698,29.219 12.717,29.168C12.733,29.126 12.718,29.078 12.681,29.052C12.643,29.024 12.594,29.026 12.559,29.056ZM9.723,23.238C9.631,22.86 9.788,22.461 10.116,22.243C10.154,22.218 10.17,22.17 10.155,22.127C10.139,22.084 10.096,22.056 10.051,22.061C9.997,22.065 9.943,22.071 9.886,22.084C9.605,22.152 9.366,22.326 9.216,22.573C9.065,22.82 9.02,23.111 9.087,23.392C9.155,23.673 9.328,23.911 9.575,24.062C9.748,24.167 9.941,24.221 10.138,24.221C10.223,24.221 10.309,24.211 10.393,24.191C10.448,24.178 10.497,24.159 10.552,24.136C10.594,24.118 10.619,24.075 10.613,24.03C10.607,23.985 10.571,23.949 10.526,23.944C10.136,23.899 9.813,23.616 9.723,23.238ZM21.925,13.617C21.665,13.911 21.248,14.013 20.887,13.873C20.525,13.731 20.287,13.373 20.295,12.981C20.296,12.936 20.267,12.895 20.223,12.883C20.178,12.869 20.131,12.889 20.11,12.928C20.082,12.976 20.054,13.025 20.035,13.077C19.817,13.634 20.094,14.264 20.65,14.48C20.779,14.53 20.911,14.554 21.042,14.554C21.476,14.554 21.887,14.291 22.055,13.863C22.075,13.81 22.087,13.757 22.099,13.703C22.109,13.659 22.087,13.613 22.046,13.592C22.007,13.573 21.955,13.583 21.925,13.617ZM20.775,22.616C20.508,22.902 20.087,22.993 19.73,22.842C19.372,22.69 19.145,22.325 19.165,21.934C19.168,21.888 19.138,21.848 19.095,21.834C19.051,21.82 19.003,21.839 18.98,21.878C18.951,21.924 18.923,21.97 18.901,22.022C18.668,22.572 18.925,23.21 19.475,23.442C19.613,23.501 19.756,23.528 19.897,23.528C20.319,23.528 20.721,23.28 20.896,22.868C20.917,22.821 20.929,22.772 20.946,22.709C20.958,22.664 20.937,22.618 20.897,22.596C20.858,22.575 20.807,22.583 20.775,22.616Z"
   style="fill:rgb(95,162,73);fill-rule:nonzero;" />
                <circle
   id="circle20"
   cx="30.021"
   cy="17.935"
   r="0.639"
   style="fill:rgb(92,145,59);" />
                <circle
   id="circle30"
   cx="24.844"
   cy="20.719"
   r="0.5"
   style="fill:rgb(119,178,85);" />
                <circle
   id="circle32"
   cx="30.875"
   cy="12.219"
   r="0.5"
   style="fill:rgb(119,178,85);" />
                <circle
   id="circle34"
   cx="32.656"
   cy="7.219"
   r="0.5"
   style="fill:rgb(119,178,85);" />
                <circle
   id="circle36"
   cx="28"
   cy="16.75"
   r="0.5"
   style="fill:rgb(119,178,85);" />
                <circle
   id="circle44"
   cx="25.781"
   cy="19.969"
   r="0.5"
   style="fill:rgb(119,178,85);" />
                <circle
   id="circle64"
   cx="16.728"
   cy="14.201"
   r="0.639"
   style="fill:rgb(119,178,85);" />
                <circle
   id="circle68"
   cx="19.125"
   cy="11.594"
   r="0.639"
   style="fill:rgb(119,178,85);" />
                <g
   id="circle70"
   transform="matrix(0.875497,0.483224,-0.483224,0.875497,0,0)">
                    <circle
   cx="23.892"
   cy="-3.96"
   r="0.639"
   style="fill:rgb(119,178,85);"
   id="circle114" />
                </g>
                <g
   id="circle70-3"
   transform="matrix(-0.668001,-0.74416,-0.74416,0.668001,0,0)">
                    <circle
   cx="-30.435"
   cy="-13.464"
   r="0.639"
   style="fill:rgb(119,178,85);"
   id="circle117" />
                </g>
            </g>
        </g>
    </g>
<g
   id="g47"
   transform="translate(-0.37918995,-0.30796273)"><path
     fill-rule="evenodd"
     clip-rule="evenodd"
     fill="#292f33"
     d="m 9.5480278,4.6964323 c 0.06853,0.3150856 0.6302052,1.4971549 0.4765122,2.2057632 -0.1524812,0.7082797 -1.6748609,4.2906925 -1.1556236,5.9852665 0.5366214,1.745583 4.9212686,4.130619 5.9670906,4.220117 2.340587,0.200393 4.102343,-2.398557 5.200023,-3.579388 0.620764,-0.669213 1.693453,0.04072 1.693453,0.04072 0,0 1.072686,0.709947 0.809697,1.614823 -0.465573,1.600315 -1.787215,4.490579 -0.552709,6.65516 0.5523,0.969332 4.51296,4.108675 6.190338,3.828405 1.624645,-0.275672 3.862392,-3.384622 4.373399,-3.856746 0.509052,-0.47229 1.736179,-0.470457 2.024968,-0.549061 0.290279,-0.07762 0.732761,-0.864823 0.663954,-1.181223 C 35.102825,19.450594 31.081402,16.308282 26.231798,13.849137 25.263965,13.358691 24.759819,13.414391 22.613699,11.994004 20.469073,10.574611 20.282926,10.06092 19.438367,9.3529835 15.207151,5.8009584 10.791051,3.3589904 10.211981,3.5152064 9.9231928,3.593808 9.4802478,4.3818402 9.5480278,4.6964323 Z"
     id="path304"
     style="fill:#1a1a1a;stroke-width:0.91754" /><g
     transform="matrix(-0.16815841,-0.09237738,-0.08859642,0.15574561,96.342598,34.928421)"
     id="g326"
     style="clip-rule:evenodd;fill-rule:evenodd;stroke-linejoin:round;stroke-miterlimit:2"><g
       transform="matrix(4.60728,0,0,4.60215,314.431,64.7038)"
       id="g320"
       style="fill:#2b1100"><path
         d="m 17.830635,20.97248 c -3.615027,0.32146 -6.046321,0.114728 -9.0574086,-0.196791 -0.6876209,-0.07014 -1.9955986,0.177455 -1.8411685,2.168134 0.3088602,3.981357 5.2798231,8.550351 11.6707281,7.98205 6.389907,-0.568211 10.589717,-5.9527 10.280857,-9.934057 -0.15443,-1.990679 -1.482716,-2.004855 -2.150029,-1.813224 -2.921827,0.839094 -5.287952,1.472428 -8.902979,1.793888 z"
         style="fill:#2b1100;fill-rule:nonzero"
         id="path318" /></g><g
       transform="matrix(4.5971408,-0.40833774,0.38144237,4.9115019,305.5826,62.336578)"
       id="g324"><path
         d="m 9,22 c 0,0 3,1 9,1 6,0 9,-1 9,-1 0,0 -2,4 -9,4 -7,0 -9,-4 -9,-4 z"
         style="fill:#ffffff;fill-rule:nonzero"
         id="path322" /></g></g></g></svg>
